<mxfile modified="2022-11-01T14:24:45.548Z" host="app.diagrams.net" agent="5.0 (Windows NT 10.0; Win64; x64) AppleWebKit/537.36 (KHTML, like Gecko) Chrome/107.0.0.0 Safari/537.36 Edg/107.0.1418.26" etag="-e2Ka_NcfA3P9zm7OGzy" version="20.5.1" type="github">
  <diagram id="Ht1M8jgEwFfnCIfOTk4-" name="Page-1">
    <mxGraphModel dx="735" dy="468" grid="1" gridSize="10" guides="1" tooltips="1" connect="1" arrows="1" fold="1" page="1" pageScale="1" pageWidth="1169" pageHeight="827" math="0" shadow="0">
      <root>
        <mxCell id="0" />
        <mxCell id="1" parent="0" />
        <mxCell id="jiyVCTPhfHM_c6IX0NZL-1" value="Attacker" style="shape=image;html=1;verticalAlign=top;verticalLabelPosition=bottom;labelBackgroundColor=#ffffff;imageAspect=0;aspect=fixed;image=https://cdn0.iconfinder.com/data/icons/kameleon-free-pack-rounded/110/Hacker-128.png" vertex="1" parent="1">
          <mxGeometry x="100" y="160" width="60" height="60" as="geometry" />
        </mxCell>
        <mxCell id="jiyVCTPhfHM_c6IX0NZL-3" value="User" style="html=1;verticalLabelPosition=bottom;align=center;labelBackgroundColor=#ffffff;verticalAlign=top;strokeWidth=2;strokeColor=#0080F0;shadow=0;dashed=0;shape=mxgraph.ios7.icons.user;" vertex="1" parent="1">
          <mxGeometry x="360" y="160" width="60" height="61" as="geometry" />
        </mxCell>
        <mxCell id="jiyVCTPhfHM_c6IX0NZL-4" value="" style="endArrow=classic;html=1;rounded=0;exitX=1;exitY=0.5;exitDx=0;exitDy=0;entryX=-0.039;entryY=0.492;entryDx=0;entryDy=0;entryPerimeter=0;" edge="1" parent="1" source="jiyVCTPhfHM_c6IX0NZL-1" target="jiyVCTPhfHM_c6IX0NZL-3">
          <mxGeometry relative="1" as="geometry">
            <mxPoint x="200" y="160" as="sourcePoint" />
            <mxPoint x="300" y="160" as="targetPoint" />
          </mxGeometry>
        </mxCell>
        <mxCell id="jiyVCTPhfHM_c6IX0NZL-5" value="" style="shape=message;html=1;outlineConnect=0;" vertex="1" parent="jiyVCTPhfHM_c6IX0NZL-4">
          <mxGeometry width="40" height="30" relative="1" as="geometry">
            <mxPoint x="-19" y="-15" as="offset" />
          </mxGeometry>
        </mxCell>
        <mxCell id="jiyVCTPhfHM_c6IX0NZL-6" value="" style="verticalLabelPosition=bottom;html=1;verticalAlign=top;align=center;strokeColor=none;fillColor=#00BEF2;shape=mxgraph.azure.computer;pointerEvents=1;" vertex="1" parent="1">
          <mxGeometry x="440" y="176" width="50" height="45" as="geometry" />
        </mxCell>
        <mxCell id="jiyVCTPhfHM_c6IX0NZL-18" value="" style="verticalLabelPosition=bottom;html=1;verticalAlign=top;align=center;strokeColor=none;fillColor=#00BEF2;shape=mxgraph.azure.computer;pointerEvents=1;" vertex="1" parent="1">
          <mxGeometry x="530" y="369" width="50" height="45" as="geometry" />
        </mxCell>
        <mxCell id="jiyVCTPhfHM_c6IX0NZL-19" value="" style="verticalLabelPosition=bottom;html=1;verticalAlign=top;align=center;strokeColor=none;fillColor=#00BEF2;shape=mxgraph.azure.computer;pointerEvents=1;" vertex="1" parent="1">
          <mxGeometry x="355" y="369" width="50" height="45" as="geometry" />
        </mxCell>
        <mxCell id="jiyVCTPhfHM_c6IX0NZL-20" value="" style="verticalLabelPosition=bottom;html=1;verticalAlign=top;align=center;strokeColor=none;fillColor=#00BEF2;shape=mxgraph.azure.computer;pointerEvents=1;" vertex="1" parent="1">
          <mxGeometry x="440" y="369" width="50" height="45" as="geometry" />
        </mxCell>
        <mxCell id="jiyVCTPhfHM_c6IX0NZL-21" value="Corporate Network" style="verticalLabelPosition=bottom;verticalAlign=top;html=1;shape=mxgraph.basic.frame;dx=10;" vertex="1" parent="1">
          <mxGeometry x="320" y="100" width="290" height="370" as="geometry" />
        </mxCell>
        <mxCell id="jiyVCTPhfHM_c6IX0NZL-27" value="" style="edgeStyle=orthogonalEdgeStyle;rounded=0;orthogonalLoop=1;jettySize=auto;html=1;targetPerimeterSpacing=3;sourcePerimeterSpacing=3;strokeWidth=3;startArrow=classic;startFill=1;" edge="1" parent="1" source="jiyVCTPhfHM_c6IX0NZL-26">
          <mxGeometry relative="1" as="geometry">
            <mxPoint x="130" y="241" as="targetPoint" />
          </mxGeometry>
        </mxCell>
        <mxCell id="jiyVCTPhfHM_c6IX0NZL-26" value="Command and Control Server" style="sketch=0;outlineConnect=0;fontColor=#232F3E;gradientColor=none;fillColor=#232F3D;strokeColor=none;dashed=0;verticalLabelPosition=bottom;verticalAlign=top;align=center;html=1;fontSize=12;fontStyle=0;aspect=fixed;pointerEvents=1;shape=mxgraph.aws4.traditional_server;" vertex="1" parent="1">
          <mxGeometry x="117.88" y="318" width="24.23" height="42" as="geometry" />
        </mxCell>
        <mxCell id="jiyVCTPhfHM_c6IX0NZL-28" value="Internet" style="html=1;outlineConnect=0;fillColor=#CCCCCC;strokeColor=#6881B3;gradientColor=none;gradientDirection=north;strokeWidth=2;shape=mxgraph.networks.cloud;fontColor=#ffffff;" vertex="1" parent="1">
          <mxGeometry x="170" y="400" width="90" height="50" as="geometry" />
        </mxCell>
      </root>
    </mxGraphModel>
  </diagram>
</mxfile>
